<?xml version="1.0" encoding="iso-8859-1"?>
<!-- Generator: Adobe Illustrator 19.0.0, SVG Export Plug-In . SVG Version: 6.00 Build 0)  -->
<svg version="1.1" id="Capa_1" xmlns="http://www.w3.org/2000/svg" xmlns:xlink="http://www.w3.org/1999/xlink" x="0px" y="0px"
	 viewBox="0 0 512 512" style="enable-background:new 0 0 512 512;" xml:space="preserve">
<rect x="170.667" y="230.4" style="fill:#CCCCCC;" width="170.667" height="204.8"/>
<g>
	<rect x="51.2" y="230.4" style="fill:#E6E6E6;" width="119.467" height="204.8"/>
	<rect x="341.333" y="230.4" style="fill:#E6E6E6;" width="119.467" height="204.8"/>
</g>
<rect x="8.533" y="469.333" style="fill:#0071BC;" width="494.933" height="34.133"/>
<rect x="34.133" y="435.2" style="fill:#29ABE2;" width="443.733" height="34.133"/>
<g>
	<polygon style="fill:#0071BC;" points="68.267,162.133 256,85.333 443.733,162.133 	"/>
	<path style="fill:#0071BC;" d="M256,341.333L256,341.333c28.279,0,51.2,22.921,51.2,51.2V435.2l0,0H204.8l0,0v-42.667
		C204.8,364.254,227.721,341.333,256,341.333z"/>
	<path style="fill:#0071BC;" d="M324.267,51.2H256c-4.71,0-8.533-3.823-8.533-8.533V8.533C247.467,3.823,251.29,0,256,0h68.267
		c4.71,0,8.533,3.823,8.533,8.533v34.133C332.8,47.377,328.977,51.2,324.267,51.2z"/>
	<rect x="34.133" y="196.267" style="fill:#0071BC;" width="443.733" height="34.133"/>
</g>
<rect x="51.2" y="162.133" style="fill:#29ABE2;" width="409.6" height="34.133"/>
<path d="M503.467,460.8H486.4v-25.6c0-4.71-3.823-8.533-8.533-8.533h-8.533V238.933h8.533c4.71,0,8.533-3.823,8.533-8.533v-34.133
	c0-4.71-3.823-8.533-8.533-8.533h-8.533v-25.6c0-4.71-3.823-8.533-8.533-8.533h-15.36L264.533,79.599V51.2h59.733
	c4.71,0,8.533-3.823,8.533-8.533V8.533c0-4.71-3.823-8.533-8.533-8.533H256c-4.71,0-8.533,3.823-8.533,8.533v71.066L66.56,153.6
	H51.2c-4.71,0-8.533,3.823-8.533,8.533v25.6h-8.533c-4.71,0-8.533,3.823-8.533,8.533V230.4c0,4.71,3.823,8.533,8.533,8.533h8.533
	v187.733h-8.533c-4.71,0-8.533,3.823-8.533,8.533v25.6H8.533c-4.71,0-8.533,3.823-8.533,8.533v34.133C0,508.177,3.823,512,8.533,512
	h494.933c4.71,0,8.533-3.823,8.533-8.533v-34.133C512,464.623,508.177,460.8,503.467,460.8z M264.533,17.067h51.2v17.067h-51.2
	V17.067z M256,94.549L400.333,153.6H111.667L256,94.549z M59.733,170.667h392.533v17.067H59.733V170.667z M42.667,204.8h426.667
	v17.067H42.667V204.8z M452.267,238.933v187.733h-102.4V238.933H452.267z M256,332.8c-32.973,0.043-59.691,26.761-59.733,59.733
	v34.133H179.2V238.933h153.6v187.733h-17.067v-34.133C315.691,359.561,288.973,332.843,256,332.8z M298.667,392.533v34.133h-85.333
	v-34.133c0-23.561,19.106-42.667,42.667-42.667C279.561,349.867,298.667,368.973,298.667,392.533z M162.133,238.933v187.733h-102.4
	V238.933H162.133z M42.667,443.733h426.667V460.8H42.667V443.733z M494.933,494.933H17.067v-17.067h477.867V494.933z"/>
<rect x="97.925" y="80.868" transform="matrix(-0.9256 0.3786 -0.3786 -0.9256 337.8325 112.3728)" width="119.887" height="17.066"/>
<rect x="67.618" y="114.229" transform="matrix(-0.9256 0.3786 -0.3786 -0.9256 193.449 207.492)" width="17.417" height="17.067"/>
<rect x="264.533" y="392.533" width="17.067" height="17.067"/>
<rect x="230.4" y="392.533" width="17.067" height="17.067"/>
<rect x="85.333" y="264.533" width="17.067" height="17.067"/>
<rect x="119.467" y="264.533" width="17.067" height="17.067"/>
<rect x="85.333" y="298.667" width="17.067" height="17.067"/>
<rect x="119.467" y="298.667" width="17.067" height="17.067"/>
<rect x="213.333" y="264.533" width="17.067" height="17.067"/>
<rect x="247.467" y="264.533" width="17.067" height="17.067"/>
<rect x="281.6" y="264.533" width="17.067" height="17.067"/>
<rect x="213.333" y="298.667" width="17.067" height="17.067"/>
<rect x="247.467" y="298.667" width="17.067" height="17.067"/>
<rect x="281.6" y="298.667" width="17.067" height="17.067"/>
<rect x="85.333" y="349.867" width="17.067" height="17.067"/>
<rect x="119.467" y="349.867" width="17.067" height="17.067"/>
<rect x="85.333" y="384" width="17.067" height="17.067"/>
<rect x="119.467" y="384" width="17.067" height="17.067"/>
<rect x="409.6" y="264.533" width="17.067" height="17.067"/>
<rect x="375.467" y="264.533" width="17.067" height="17.067"/>
<rect x="409.6" y="298.667" width="17.067" height="17.067"/>
<rect x="375.467" y="298.667" width="17.067" height="17.067"/>
<rect x="409.6" y="349.867" width="17.067" height="17.067"/>
<rect x="375.467" y="349.867" width="17.067" height="17.067"/>
<rect x="409.6" y="384" width="17.067" height="17.067"/>
<rect x="375.467" y="384" width="17.067" height="17.067"/>
<rect x="486.4" y="281.6" width="17.067" height="76.8"/>
<rect x="486.4" y="375.467" width="17.067" height="17.067"/>
<g>
</g>
<g>
</g>
<g>
</g>
<g>
</g>
<g>
</g>
<g>
</g>
<g>
</g>
<g>
</g>
<g>
</g>
<g>
</g>
<g>
</g>
<g>
</g>
<g>
</g>
<g>
</g>
<g>
</g>
</svg>
